<?xml version="1.0" standalone="no"?>
<!DOCTYPE svg PUBLIC "-//W3C//DTD SVG 20010904//EN"
 "http://www.w3.org/TR/2001/REC-SVG-20010904/DTD/svg10.dtd">
<svg version="1.0" xmlns="http://www.w3.org/2000/svg"
 width="2000.000000pt" height="1500.000000pt" viewBox="0 0 2000.000000 1500.000000"
 preserveAspectRatio="xMidYMid meet">
<metadata>
Created by potrace 1.16, written by Peter Selinger 2001-2019
</metadata>
<g transform="translate(0.000000,1500.000000) scale(0.100000,-0.100000)"
fill="#000000" stroke="none">
<path d="M0 7500 l0 -7500 10000 0 10000 0 0 7500 0 7500 -10000 0 -10000 0 0
-7500z m10147 4889 c534 -43 990 -209 1368 -498 89 -68 278 -254 355 -351 256
-321 426 -732 495 -1190 80 -538 12 -1069 -206 -1627 -115 -293 -332 -697
-514 -959 -198 -283 -401 -530 -458 -557 -83 -40 -187 -5 -225 75 -12 24 -30
81 -42 128 -39 158 -112 394 -162 530 -54 143 -116 280 -129 280 -14 0 -103
-107 -160 -192 -166 -252 -272 -572 -321 -968 -17 -135 -17 -571 0 -710 30
-247 73 -442 148 -675 42 -129 45 -144 35 -183 -29 -105 -136 -159 -234 -118
-19 7 -89 60 -158 117 -548 456 -1067 1002 -1415 1489 -585 816 -881 1581
-955 2467 -17 208 -7 649 20 825 82 550 283 1011 601 1380 355 413 877 680
1440 737 124 12 369 13 517 0z m-5119 -9096 l205 -561 36 -7 c63 -12 101 -32
101 -54 0 -21 -5 -21 -250 -21 l-250 0 0 24 c0 23 6 25 95 41 52 10 95 20 94
24 0 3 -24 74 -53 156 l-53 150 -249 3 -249 2 -56 -154 -56 -155 26 -5 c14 -3
65 -13 114 -22 80 -15 87 -19 87 -40 l0 -24 -240 0 -240 0 0 24 c0 21 9 27 65
46 36 12 65 23 65 24 0 2 92 248 205 547 113 299 207 550 210 557 3 9 28 12
96 10 l91 -3 206 -562z m1352 547 c0 -24 -20 -33 -115 -49 -38 -7 -80 -14 -92
-17 l-23 -4 0 -510 0 -510 232 2 232 3 36 190 c34 186 36 190 60 190 l25 0 3
-242 2 -243 -475 0 -475 0 0 24 c0 20 8 26 58 39 31 8 76 18 98 22 l41 6 8
510 c4 281 5 512 3 514 -2 3 -40 12 -84 20 -43 9 -89 18 -101 21 -17 3 -23 12
-23 29 l0 25 295 0 c290 0 295 0 295 -20z m1968 -212 l-3 -233 -25 0 c-24 0
-26 4 -59 183 l-35 182 -173 0 -173 0 0 -510 c0 -280 2 -510 5 -510 10 0 200
-30 223 -35 15 -4 22 -13 22 -30 l0 -25 -335 0 -335 0 0 24 c0 27 23 34 176
58 l72 11 6 231 c3 127 8 356 12 509 l6 277 -179 0 -179 0 -32 -177 c-18 -98
-37 -182 -42 -186 -4 -5 -16 -7 -26 -5 -18 3 -19 18 -22 236 l-2 232 550 0
550 0 -2 -232z m1357 199 c69 -32 128 -85 158 -142 31 -59 30 -182 -3 -250
-32 -67 -108 -141 -175 -171 l-56 -26 51 -25 c91 -45 118 -98 164 -318 l31
-150 55 -14 c30 -7 72 -18 93 -23 30 -7 37 -13 37 -34 l0 -24 -167 2 -166 3
-37 200 c-21 111 -44 214 -53 230 -39 77 -89 94 -279 95 l-148 0 0 -219 0
-220 53 -10 c28 -6 72 -15 97 -19 39 -6 45 -11 48 -35 l3 -27 -280 0 -281 0 0
24 c0 28 24 38 131 56 l66 11 6 337 c8 378 9 692 3 692 -4 0 -142 27 -183 36
-17 3 -23 12 -23 30 l0 25 398 -3 397 -3 60 -28z m1315 13 c0 -24 -20 -35 -95
-49 -33 -7 -70 -14 -82 -17 l-23 -4 0 -401 c0 -261 4 -416 11 -444 15 -60 75
-126 141 -156 46 -20 69 -24 168 -24 147 0 200 17 276 89 l55 51 6 441 6 442
-59 12 c-161 33 -154 30 -154 56 l0 24 265 0 265 0 0 -24 c0 -22 -7 -26 -77
-41 -43 -9 -88 -19 -100 -21 l-23 -4 0 -390 c0 -250 -4 -408 -11 -442 -32
-151 -150 -261 -317 -297 -74 -15 -235 -14 -310 4 -153 36 -251 125 -287 260
-14 52 -15 110 -9 462 l7 401 -57 11 c-31 6 -81 16 -111 22 -49 9 -55 13 -55
35 l0 24 285 0 c277 0 285 -1 285 -20z m1780 -4 c0 -26 4 -24 -177 -62 l-23
-4 0 -514 0 -515 53 -10 c28 -5 72 -14 97 -18 39 -7 45 -12 48 -36 l3 -27
-280 0 -281 0 0 25 c0 14 2 25 4 25 2 0 31 6 63 14 32 8 74 17 94 20 l37 6 6
348 c3 191 8 422 11 513 l6 166 -63 12 c-159 31 -158 31 -158 57 l0 24 280 0
280 0 0 -24z m1510 4 c0 -11 -167 -252 -371 -537 -204 -284 -378 -527 -386
-540 l-16 -24 294 7 c162 3 310 9 329 13 l34 7 23 114 c34 173 30 162 61 158
l27 -3 3 -192 2 -193 -495 0 -495 0 0 23 c0 13 151 232 386 557 l385 535 -43
3 c-24 1 -162 -1 -307 -5 l-264 -8 -18 -80 c-9 -44 -22 -106 -29 -137 -11 -55
-13 -58 -41 -58 l-29 0 0 190 0 190 475 0 c468 0 475 0 475 -20z m1550 -161
l0 -180 -27 3 c-26 3 -28 9 -58 128 l-31 125 -272 3 -272 2 0 -215 0 -215 176
0 175 0 13 33 c7 17 21 54 30 80 15 39 22 48 40 45 21 -3 21 -7 24 -216 l2
-213 -26 3 c-23 3 -30 13 -53 78 l-27 75 -177 3 -177 2 0 -235 0 -235 279 0
279 0 15 68 c8 37 23 104 33 150 18 78 20 82 46 82 l28 0 0 -200 0 -200 -520
0 -520 0 0 24 c0 25 25 35 139 56 30 6 56 11 57 13 1 1 5 200 8 442 4 242 9
472 12 511 l5 71 -63 12 c-159 31 -158 31 -158 57 l0 24 510 0 510 0 0 -181z"/>
<path d="M9626 12039 c-739 -95 -1312 -577 -1576 -1326 -183 -517 -195 -1210
-35 -1879 214 -892 785 -1801 1655 -2635 90 -87 166 -156 168 -154 2 2 -3 48
-12 102 -29 192 -39 331 -39 558 -1 505 82 908 263 1283 96 199 183 325 310
453 128 128 197 169 286 169 74 0 124 -24 191 -92 103 -104 202 -305 303 -613
28 -88 53 -161 55 -163 1 -2 32 37 67 85 341 466 592 980 707 1444 53 216 71
339 78 544 15 433 -72 857 -243 1190 -301 586 -854 946 -1584 1029 -147 17
-477 20 -594 5z"/>
<path d="M4599 3448 l-106 -293 109 -3 c60 -1 155 -1 211 0 l103 3 -101 292
c-55 161 -102 293 -105 293 -3 0 -53 -132 -111 -292z"/>
<path d="M9212 3523 l3 -238 152 -3 c167 -3 178 0 269 66 115 84 126 276 21
357 -60 45 -114 55 -289 55 l-158 0 2 -237z"/>
</g>
</svg>
